<svg id="Capa_1" enable-background="new 0 0 504.065 504.065" height="512" viewBox="0 0 504.065 504.065" width="512" xmlns="http://www.w3.org/2000/svg"><path d="m496.546 252.048c0 135.03-109.47 244.5-244.5 244.5-19.91 0-39.25-2.38-57.78-6.87-107.14-25.96-186.72-122.5-186.72-237.63s79.58-211.67 186.72-237.63c18.53-4.49 37.87-6.87 57.78-6.87 135.03 0 244.5 109.47 244.5 244.5z" fill="#e04955"/><path d="m194.266 14.418v475.26c-107.14-25.96-186.72-122.5-186.72-237.63s79.58-211.67 186.72-237.63z" fill="#5db33a"/><circle cx="194.272" cy="252.049" fill="#fed22b" r="103.495"/><path d="m194.272 325.849c-29.883 0-54.109-24.225-54.109-54.108v-71.614h108.217v71.614c0 29.883-24.225 54.108-54.108 54.108z" fill="#fff5f4"/><path d="m61.656 252.048c0 94.71 53.86 176.84 132.61 217.44v20.19c-107.14-25.96-186.72-122.5-186.72-237.63s79.58-211.67 186.72-237.63v20.19c-78.75 40.6-132.61 122.73-132.61 217.44z" fill="#5db33a"/><path d="m61.656 252.048c0 94.71 53.86 176.84 132.61 217.44v20.19c-107.14-25.96-186.72-122.5-186.72-237.63s79.58-211.67 186.72-237.63v20.19c-78.75 40.6-132.61 122.73-132.61 217.44z" fill="#5ca33b"/><path d="m194.266 469.488v20.19c18.53 4.49 37.87 6.87 57.78 6.87 9.15 0 18.18-.5 27.07-1.48-10.46-1.15-20.72-2.96-30.74-5.39-19-4.6-37.14-11.43-54.11-20.19z" fill="#da2f3c"/><path d="m279.116 9.028c-8.89-.98-17.92-1.48-27.07-1.48-19.91 0-39.25 2.38-57.78 6.87v20.19c16.97-8.76 35.11-15.59 54.11-20.19 10.02-2.43 20.28-4.24 30.74-5.39z" fill="#da2f3c"/><path d="m440.995 85.303c-2.742-3.105-7.482-3.397-10.586-.657-3.104 2.742-3.398 7.481-.657 10.587 38.237 43.297 59.294 98.988 59.294 156.815 0 149.939-138.714 263.713-287.282 231.641v-120.904c57.722-3.867 103.502-52.052 103.502-110.736 0-58.685-45.781-106.87-103.502-110.737v-120.877c73.217-15.881 150.421 3.649 207.46 54.229 3.1 2.749 7.839 2.463 10.587-.635 2.749-3.1 2.464-7.84-.635-10.588-98.382-87.243-249.787-85.117-345.321 10.417-72.67 72.67-91.391 177.983-57.582 267.346 1.135 3 3.987 4.848 7.016 4.848 5.224 0 8.872-5.242 7.013-10.156-49.287-130.279 24.35-273.793 156.462-311.7v117.118c-57.714 3.874-103.487 52.056-103.487 110.735s45.773 106.861 103.487 110.735v117.152c-61.309-17.496-113.822-59.294-144.526-117.557-1.931-3.664-6.467-5.069-10.132-3.138s-5.069 6.467-3.139 10.132c79.666 151.167 281.918 180.217 401.269 60.865 95.489-95.488 97.576-246.628 10.759-344.935zm-342.718 166.746c0-52.932 43.063-95.995 95.995-95.995s95.995 43.063 95.995 95.995-43.063 95.994-95.995 95.994-95.995-43.062-95.995-95.994z"/><path d="m248.38 192.626h-108.217c-4.142 0-7.5 3.357-7.5 7.5v71.614c0 33.971 27.637 61.608 61.608 61.608s61.609-27.638 61.609-61.608v-71.614c0-4.142-3.358-7.5-7.5-7.5zm-7.5 79.115c0 25.7-20.909 46.608-46.609 46.608s-46.608-20.908-46.608-46.608v-64.114h93.217z"/><path d="m169.981 272.266c4.866 0 8.811-3.945 8.811-8.811v-8.399c0-1.802-1.461-3.263-3.263-3.263h-11.096c-1.802 0-3.263 1.461-3.263 3.263v8.399c0 4.867 3.945 8.811 8.811 8.811z"/><path d="m194.272 272.266c4.866 0 8.811-3.945 8.811-8.811v-8.399c0-1.802-1.461-3.263-3.263-3.263h-11.096c-1.802 0-3.263 1.461-3.263 3.263v8.399c0 4.867 3.944 8.811 8.811 8.811z"/><path d="m194.272 244.192c4.866 0 8.811-3.945 8.811-8.811v-8.398c0-1.802-1.461-3.263-3.263-3.263h-11.096c-1.802 0-3.263 1.461-3.263 3.263v8.398c0 4.866 3.944 8.811 8.811 8.811z"/><path d="m194.272 300.341c4.866 0 8.811-3.945 8.811-8.811v-8.399c0-1.802-1.461-3.263-3.263-3.263h-11.096c-1.802 0-3.263 1.461-3.263 3.263v8.399c0 4.866 3.944 8.811 8.811 8.811z"/><path d="m218.562 272.266c4.866 0 8.811-3.945 8.811-8.811v-8.399c0-1.802-1.461-3.263-3.263-3.263h-11.096c-1.802 0-3.263 1.461-3.263 3.263v8.399c0 4.867 3.945 8.811 8.811 8.811z"/></svg>